HIERARCHY
ROOT Hips
{
    OFFSET 0.0 0.0 0.0
    CHANNELS 6 Xposition Yposition Zposition Zrotation Xrotation Yrotation
    JOINT LeftUpLeg
    {
        OFFSET 15.397945365843036 0.0 0.0
        CHANNELS 3 Zrotation Xrotation Yrotation
        JOINT LeftLeg
        {
            OFFSET 0.0 0.0 -60.52963658705719
            CHANNELS 3 Zrotation Xrotation Yrotation
            JOINT LeftFoot
            {
                OFFSET 0.0 0.0 -44.658139277884786
                CHANNELS 3 Zrotation Xrotation Yrotation
                JOINT LeftToeBase
                {
                    OFFSET 0.0 -12.875466382995903 0.0
                    CHANNELS 3 Zrotation Xrotation Yrotation
                    End Site
                    {
                        OFFSET 0 0 0
                    }
                }
            }
        }
    }
    JOINT RightUpLeg
    {
        OFFSET -15.397945365843036 0.0 0.0
        CHANNELS 3 Zrotation Xrotation Yrotation
        JOINT RightLeg
        {
            OFFSET 0.0 0.0 -60.52963658705719
            CHANNELS 3 Zrotation Xrotation Yrotation
            JOINT RightFoot
            {
                OFFSET 0.0 0.0 -44.658139277884786
                CHANNELS 3 Zrotation Xrotation Yrotation
                JOINT RightToeBase
                {
                    OFFSET 0.0 -12.875466382995903 0.0
                    CHANNELS 3 Zrotation Xrotation Yrotation
                    End Site
                    {
                        OFFSET 0 0 0
                    }
                }
            }
        }
    }
    JOINT Spine
    {
        OFFSET 0.0 0.0 11.688376580070827
        CHANNELS 3 Zrotation Xrotation Yrotation
        JOINT Spine1
        {
            OFFSET 0.0 0.0 11.45785012606359
            CHANNELS 3 Zrotation Xrotation Yrotation
            JOINT Spine2
            {
                OFFSET 0.0 0.0 11.457850126063592
                CHANNELS 3 Zrotation Xrotation Yrotation
                JOINT Spine3
                {
                    OFFSET 0.0 0.0 11.457850126063587
                    CHANNELS 3 Zrotation Xrotation Yrotation
                    JOINT Spine4
                    {
                        OFFSET 0.0 0.0 11.457850126063596
                        CHANNELS 3 Zrotation Xrotation Yrotation
                        JOINT RightShoulder
                        {
                            OFFSET -25.65560048422242 0.0 0.0
                            CHANNELS 3 Zrotation Xrotation Yrotation
                            JOINT RightArm
                            {
                                OFFSET -32.00915478843832 0.0 0.0
                                CHANNELS 3 Zrotation Xrotation Yrotation
                                JOINT RightForeArm
                                {
                                    OFFSET -33.796636522857746 0.0 0.0
                                    CHANNELS 3 Zrotation Xrotation Yrotation
                                    JOINT RightHand
                                    {
                                        OFFSET -12.604413318417523 0.0 0.0
                                        CHANNELS 3 Zrotation Xrotation Yrotation
                                        End Site
                                        {
                                            OFFSET 0 0 0
                                        }
                                    }
                                }
                            }
                        }
                        JOINT LeftShoulder
                        {
                            OFFSET 25.65560048422242 0.0 0.0
                            CHANNELS 3 Zrotation Xrotation Yrotation
                            JOINT LeftArm
                            {
                                OFFSET 32.00915478843832 0.0 0.0
                                CHANNELS 3 Zrotation Xrotation Yrotation
                                JOINT LeftForeArm
                                {
                                    OFFSET 33.796636522857746 0.0 0.0
                                    CHANNELS 3 Zrotation Xrotation Yrotation
                                    JOINT LeftHand
                                    {
                                        OFFSET 12.604413318417523 0.0 0.0
                                        CHANNELS 3 Zrotation Xrotation Yrotation
                                        End Site
                                        {
                                            OFFSET 0 0 0
                                        }
                                    }
                                }
                            }
                        }
                        JOINT Neck
                        {
                            OFFSET 0.0 0.0 11.457850149105308
                            CHANNELS 3 Zrotation Xrotation Yrotation
                            JOINT Head
                            {
                                OFFSET 0.0 0.0 26.615242511278918
                                CHANNELS 3 Zrotation Xrotation Yrotation
                                End Site
                                {
                                    OFFSET 0 0 0
                                }
                            }
                        }
                    }
                }
            }
        }
    }
}
MOTION
Frames: 4
Frame Time: 0.03333333333333333
39.21000312566757 -3.6036336287856106 434.8439374923706 138.92416466722415 -78.97848609279166 147.35413816380338 -19.049264431410087 18.180661090388064 -25.589593362423305 18.548335821820846 -5.635330447710469 31.185602223000483 154.19233252735359 2.5444437451708134e-14 37.84732416001016 2.782985346280577e-15 6.3611093629270335e-15 -1.5448672043175555e-31 15.825246575828567 13.640018642443133 3.0975150895251815 -1.8090080099563586 -1.3903725321502156 -1.7506732162580156 -35.46664203759415 6.3611093629270335e-15 -63.742686269537366 1.5902773407317584e-15 4.4139062980501586e-32 3.1805546814635168e-15 -0.12537486687116517 -4.226440524406684 0.13418938518366455 0.0 0.0 -4.969616689786745e-16 0.0 0.0 -4.969616689786745e-16 0.0 0.0 -4.969616689786745e-16 0.0 0.0 -4.969616689786745e-16 147.26524929008067 18.038305199858446 -132.97144813402082 105.80587028131436 8.910527223792438e-15 -1.2369030876708782e-15 -180.0 -7.993944499705702 -180.0 3.1805546814635168e-15 4.4139062980501586e-32 1.5902773407317584e-15 -45.51714597896605 -64.85528584282754 -101.53656068230123 -15.671583875565087 -1.5904802530771167e-16 1.2820239274466078e-14 180.0 1.7725236480787807 -180.0 -3.034560579909484e-32 1.5902773407317584e-15 2.1866313435061676e-15 3.3668998784124944 1.9148900902420833e-14 -1.8554483343919493e-15 -6.957463365701443e-16 6.3611093629270335e-15 -1.9878466759146975e-16
40.8808920621872 -3.965442480146885 434.76001453399664 142.01961176525165 -77.40265150481727 150.34507160011677 -20.633711203593293 19.736381911351916 -24.32198593975729 18.44373675792358 -5.67083134431128 31.2584088788796 155.89701869787913 -1.033680271475643e-14 36.99810383082897 -3.975693351829396e-16 0.0 0.0 17.789960756322294 15.764279486841106 3.2270064151338733 -0.8912858046436686 -0.6682339964911753 -0.943622753567025 -39.31445068540637 -6.3611093629270335e-15 -65.34407407432863 -1.5902773407317584e-15 0.0 0.0 -0.07076836967893341 -3.0455518193493596 -0.11657758468297715 -6.957463365701441e-16 -6.354897342064799e-15 -3.9756933518293955e-16 -6.957463365701441e-16 -6.354897342064799e-15 -3.9756933518293955e-16 -6.957463365701441e-16 -6.354897342064799e-15 -3.9756933518293955e-16 -6.957463365701441e-16 -6.354897342064799e-15 -3.9756933518293955e-16 145.962451386309 17.212111134524196 -132.86448207295004 105.24233437054427 1.1302638881886043e-14 1.6639936225143942e-14 -180.0 -8.752831445074703 -180.0 -3.1805546814635168e-15 2.2069531490250793e-32 -7.951386703658792e-16 -34.65480286363953 -65.29001896401091 -91.89023040724501 -14.884858623586199 1.0214206476976187e-14 7.749439810374324e-15 180.0 5.6402690700890785 -179.99999999999997 0.0 0.0 0.0 3.5097001419627767 -2.0623924596968946e-16 2.193976003334299e-15 7.951386703658792e-16 -1.3793457181406746e-33 -1.987846675914698e-16
42.667787361145024 -4.2213072091341015 434.6013256072999 144.0421995800422 -75.99308043609379 152.2090693629481 -21.68676954057689 20.741571183605977 -22.890499857485587 17.992528021943073 -5.722656003713987 30.883893683184265 157.5730099931653 -8.74652537402467e-15 36.61644410952916 -7.951386703658792e-16 0.0 0.0 19.635048617573055 17.61119038644908 3.408542250172714 0.7528715248800231 0.5462428348919623 0.32327338554095647 -43.21318747143041 9.54166404439055e-15 -67.69248735984169 1.5902773407317584e-15 1.5902773407317584e-15 -3.1805546814635168e-15 -0.039287008259511425 -2.0226017819644997 -0.3014512980572476 -7.951386703658792e-16 1.8103912550596355e-33 -2.609048762138041e-16 -7.951386703658792e-16 1.8103912550596355e-33 -2.609048762138041e-16 -7.951386703658792e-16 1.8103912550596355e-33 -2.609048762138041e-16 -7.951386703658792e-16 1.8103912550596355e-33 -2.609048762138041e-16 144.61545436865453 16.21566659521538 -132.7068639181257 104.76693138642352 -2.7265878525342413e-15 1.3960095999598373e-14 180.0 -9.366869558980474 -180.0 -3.1805546814635168e-15 1.5902773407317584e-15 7.951386703658792e-16 -22.93903065322307 -64.9551539419728 -81.49102215248138 -14.161783471034882 -3.8960017588936043e-16 6.361602424416568e-15 180.0 9.6626546025004 -180.0 0.0 0.0 -2.5842006786891076e-15 3.574956820106559 2.6760832464718984e-14 -2.028427571395374e-15 1.987846675914698e-16 4.969616689786745e-17 -1.987846675914698e-16
44.44082908630371 -4.373918460309506 434.3848978042603 145.30638856977208 -74.8527969694462 153.2513121464492 -21.814661115030205 21.0331286585997 -21.535574448178952 16.97391304691299 -5.723996911302635 30.152309887400243 159.2603759144313 -3.1805546814635168e-15 36.677220491789775 1.5902773407317584e-15 0.0 0.0 21.153726124839437 19.094647783398333 3.6582822107951016 2.7237000921205183 1.9110917943699763 1.7596701888528266 -46.552241570895816 -3.1805546814635168e-15 -71.39336542104424 0.0 0.0 -3.1805546814635168e-15 -0.02177012229360501 -1.1688145455339243 -0.4240553636848878 -7.702905869169454e-16 4.34278378445853e-33 -6.460501696722769e-16 -7.702905869169454e-16 4.34278378445853e-33 -6.460501696722769e-16 -7.702905869169454e-16 4.34278378445853e-33 -6.460501696722769e-16 -7.702905869169454e-16 4.34278378445853e-33 -6.460501696722769e-16 144.42970580463475 16.424538774807637 -133.22105275564562 105.74160504305723 0.0 0.0 -180.0 -10.491626291922946 180.0 2.385416011097637e-15 1.5902773407317582e-15 1.5902773407317582e-15 -14.181397073519545 -64.27395874483801 -73.80509160508686 -14.164177620849593 1.0253135368497653e-14 -5.1361736904427065e-15 180.0 11.064221582557149 180.0 -8.276074308844047e-32 -1.5902773407317584e-15 -5.9635400277440935e-15 3.621952351627602 -9.697306387684775e-15 3.0909857667803334e-15 3.975693351829396e-16 0.0 0.0
